<?xml version="1.0" standalone="no"?>
<!DOCTYPE svg PUBLIC "-//W3C//DTD SVG 1.1//EN" "http://www.w3.org/Graphics/SVG/1.1/DTD/svg11.dtd">
<svg width="19mm" height="20mm" viewBox="-13 -10 19 20" xmlns="http://www.w3.org/2000/svg" version="1.1">
<title>OpenSCAD Model</title>
<path d="
M 6,6.5 L 4.5,6.5 L 4.5,5.5 L 3.5,5.5 L 3.88885,-3.05462 L 3.9445,-3.08986
 L 4.08495,-3.18877 L 4.22038,-3.29446 L 4.35046,-3.40667 L 4.47487,-3.52513 L 4.59333,-3.64954 L 4.70554,-3.77962
 L 4.81123,-3.91505 L 4.91014,-4.0555 L 5.00205,-4.20064 L 5.08672,-4.35011 L 5.16396,-4.50356 L 5.23358,-4.66061
 L 5.2954,-4.82088 L 5.34929,-4.984 L 5.39511,-5.14957 L 5.43275,-5.31718 L 5.46212,-5.48644 L 5.48315,-5.65694
 L 5.49578,-5.82826 L 5.5,-6 L 5.49578,-6.17174 L 5.48315,-6.34306 L 5.46212,-6.51356 L 5.43275,-6.68282
 L 5.39511,-6.85043 L 5.34929,-7.016 L 5.2954,-7.17911 L 5.23358,-7.33939 L 5.16396,-7.49644 L 5.08672,-7.64989
 L 5.00205,-7.79936 L 4.91014,-7.9445 L 4.81123,-8.08495 L 4.70554,-8.22038 L 4.59333,-8.35046 L 4.47487,-8.47487
 L 4.35046,-8.59333 L 4.22038,-8.70554 L 4.08495,-8.81123 L 3.9445,-8.91014 L 3.79936,-9.00205 L 3.64989,-9.08672
 L 3.49644,-9.16396 L 3.33939,-9.23358 L 3.17911,-9.2954 L 3.016,-9.34929 L 2.85043,-9.39511 L 2.68282,-9.43275
 L 2.51356,-9.46212 L 2.34306,-9.48315 L 2.17174,-9.49578 L 2,-9.5 L 1.82826,-9.49578 L 1.65694,-9.48315
 L 1.48644,-9.46212 L 1.31718,-9.43275 L 1.14957,-9.39511 L 0.984004,-9.34929 L 0.820886,-9.2954 L 0.660608,-9.23358
 L 0.503557,-9.16396 L 0.350112,-9.08672 L 0.200641,-9.00205 L 0.0555048,-8.91014 L -0.0849466,-8.81123 L -0.220376,-8.70554
 L -0.350456,-8.59333 L -0.474874,-8.47487 L -0.593328,-8.35046 L -0.705536,-8.22038 L -0.811226,-8.08495 L -0.910143,-7.9445
 L -1.00205,-7.79936 L -1.08672,-7.64989 L -1.16396,-7.49644 L -1.23358,-7.33939 L -1.2954,-7.17911 L -1.34929,-7.016
 L -1.39511,-6.85043 L -1.43275,-6.68282 L -1.46212,-6.51356 L -1.48315,-6.34306 L -1.49578,-6.17174 L -1.5,-6
 L -1.49578,-5.82826 L -1.48315,-5.65694 L -1.46212,-5.48644 L -1.43275,-5.31718 L -1.39511,-5.14957 L -1.34929,-4.984
 L -1.2954,-4.82088 L -1.23358,-4.66061 L -1.16396,-4.50356 L -1.08672,-4.35011 L -1.00205,-4.20064 L -0.910143,-4.0555
 L -0.811226,-3.91505 L -0.705536,-3.77962 L -0.593328,-3.64954 L -0.474874,-3.52513 L -0.350456,-3.40667 L -0.220376,-3.29446
 L -0.0849466,-3.18877 L 0.0555048,-3.08986 L 0.111154,-3.05462 L 0.5,5.5 L -0.5,5.5 L -0.5,6.5
 L -2,6.5 L -2,9.5 L 6,9.5 z
M -9.97547,5.4994 L -9.95099,5.49759 L -9.92663,5.49459 L -9.90246,5.49039 L -9.87851,5.48501 L -9.85486,5.47847
 L -9.83156,5.47077 L -9.80866,5.46194 L -9.78622,5.45199 L -9.7643,5.44096 L -9.74295,5.42886 L -9.72222,5.41573
 L -9.70215,5.4016 L -9.6828,5.38651 L -9.66422,5.37047 L -9.64645,5.35355 L -9.62953,5.33578 L -9.61349,5.3172
 L -9.5984,5.29785 L -9.58427,5.27778 L -9.57114,5.25705 L -9.55904,5.2357 L -9.54801,5.21378 L -7.04801,0.213778
 L -7.03806,0.191342 L -7.02923,0.168446 L -7.02153,0.145143 L -7.01499,0.12149 L -7.00961,0.0975456 L -7.00541,0.0733662
 L -7.00241,0.0490093 L -7.0006,0.0245342 L -7,-0 L -7.0006,-0.0245333 L -7.00241,-0.0490084 L -7.00541,-0.0733652
 L -7.00961,-0.0975447 L -7.01499,-0.12149 L -7.02153,-0.145142 L -7.02923,-0.168445 L -7.03806,-0.191341 L -7.04801,-0.213778
 L -7.05904,-0.235698 L -7.07114,-0.257051 L -7.08427,-0.277784 L -7.0984,-0.297849 L -7.11349,-0.317196 L -7.12953,-0.335779
 L -7.14645,-0.353553 L -7.16422,-0.370475 L -7.1828,-0.386505 L -7.20215,-0.401604 L -7.22222,-0.415734 L -7.24295,-0.428864
 L -7.2643,-0.44096 L -7.28622,-0.451994 L -7.30866,-0.461939 L -7.33156,-0.470772 L -7.35486,-0.47847 L -7.37851,-0.485015
 L -7.40246,-0.490392 L -7.42663,-0.494588 L -7.45099,-0.497592 L -7.47547,-0.499397 L -7.5,-0.5 L -8.30874,-0.5
 L -8.00541,-2.92663 L -8.00241,-2.95099 L -8.0006,-2.97547 L -8,-3 L -8.0006,-3.02453 L -8.00241,-3.04901
 L -8.00541,-3.07337 L -8.00961,-3.09754 L -8.01499,-3.12149 L -8.02153,-3.14514 L -8.02923,-3.16844 L -8.03806,-3.19134
 L -8.04801,-3.21378 L -8.05904,-3.2357 L -8.07114,-3.25705 L -8.08427,-3.27778 L -8.0984,-3.29785 L -8.11349,-3.3172
 L -8.12953,-3.33578 L -8.14645,-3.35355 L -8.16422,-3.37047 L -8.1828,-3.38651 L -8.20215,-3.4016 L -8.22222,-3.41573
 L -8.24295,-3.42886 L -8.2643,-3.44096 L -8.28622,-3.45199 L -8.30866,-3.46194 L -8.33156,-3.47077 L -8.35486,-3.47847
 L -8.37851,-3.48501 L -8.40246,-3.49039 L -8.42663,-3.49459 L -8.45099,-3.49759 L -8.47547,-3.4994 L -8.5,-3.5
 L -11.5,-3.5 L -11.5245,-3.4994 L -11.549,-3.49759 L -11.5734,-3.49459 L -11.5975,-3.49039 L -11.6215,-3.48501
 L -11.6451,-3.47847 L -11.6684,-3.47077 L -11.6913,-3.46194 L -11.7138,-3.45199 L -11.7357,-3.44096 L -11.7571,-3.42886
 L -11.7778,-3.41573 L -11.7978,-3.4016 L -11.8172,-3.38651 L -11.8358,-3.37047 L -11.8536,-3.35355 L -11.8705,-3.33578
 L -11.8865,-3.3172 L -11.9016,-3.29785 L -11.9157,-3.27778 L -11.9289,-3.25705 L -11.941,-3.2357 L -11.952,-3.21378
 L -11.9619,-3.19134 L -11.9708,-3.16844 L -11.9785,-3.14514 L -11.985,-3.12149 L -11.9904,-3.09754 L -11.9946,-3.07337
 L -11.9976,-3.04901 L -11.9994,-3.02453 L -12,-3 L -11.9994,-2.97547 L -11.9976,-2.95099 L -11.9946,-2.92663
 L -11.6913,-0.5 L -12.5,-0.5 L -12.5245,-0.499397 L -12.549,-0.497592 L -12.5734,-0.494588 L -12.5975,-0.490392
 L -12.6215,-0.485015 L -12.6451,-0.47847 L -12.6684,-0.470772 L -12.6913,-0.461939 L -12.7138,-0.451994 L -12.7357,-0.44096
 L -12.7571,-0.428864 L -12.7778,-0.415734 L -12.7978,-0.401604 L -12.8172,-0.386505 L -12.8358,-0.370475 L -12.8536,-0.353553
 L -12.8705,-0.335779 L -12.8865,-0.317196 L -12.9016,-0.297849 L -12.9157,-0.277784 L -12.9289,-0.257051 L -12.941,-0.235698
 L -12.952,-0.213778 L -12.9619,-0.191341 L -12.9708,-0.168445 L -12.9785,-0.145142 L -12.985,-0.12149 L -12.9904,-0.0975447
 L -12.9946,-0.0733652 L -12.9976,-0.0490084 L -12.9994,-0.0245333 L -13,-0 L -12.9994,0.0245342 L -12.9976,0.0490093
 L -12.9946,0.0733662 L -12.9904,0.0975456 L -12.985,0.12149 L -12.9785,0.145143 L -12.9708,0.168446 L -12.9619,0.191342
 L -12.952,0.213778 L -10.452,5.21378 L -10.441,5.2357 L -10.4289,5.25705 L -10.4157,5.27778 L -10.4016,5.29785
 L -10.3865,5.3172 L -10.3705,5.33578 L -10.3536,5.35355 L -10.3358,5.37047 L -10.3172,5.38651 L -10.2978,5.4016
 L -10.2778,5.41573 L -10.2571,5.42886 L -10.2357,5.44096 L -10.2138,5.45199 L -10.1913,5.46194 L -10.1684,5.47077
 L -10.1451,5.47847 L -10.1215,5.48501 L -10.0975,5.49039 L -10.0734,5.49459 L -10.049,5.49759 L -10.0245,5.4994
 L -10,5.5 z
" stroke="black" fill="lightgray" stroke-width="0.5"/>
</svg>
