<?xml version="1.0" standalone="no"?>
<!DOCTYPE svg PUBLIC "-//W3C//DTD SVG 1.1//EN" "http://www.w3.org/Graphics/SVG/1.1/DTD/svg11.dtd">
<svg width="16mm" height="20mm" viewBox="-12 -10 16 20" xmlns="http://www.w3.org/2000/svg" version="1.1">
<title>OpenSCAD Model</title>
<path d="
M 4,6.5 L 2.5,6.5 L 2.5,5.5 L 1.5,5.5 L 1.88885,-3.05462 L 1.9445,-3.08986
 L 2.08495,-3.18877 L 2.22038,-3.29446 L 2.35046,-3.40667 L 2.47487,-3.52513 L 2.59333,-3.64954 L 2.70554,-3.77962
 L 2.81123,-3.91505 L 2.91014,-4.0555 L 3.00205,-4.20064 L 3.08672,-4.35011 L 3.16396,-4.50356 L 3.23358,-4.66061
 L 3.2954,-4.82088 L 3.34929,-4.984 L 3.39511,-5.14957 L 3.43275,-5.31718 L 3.46212,-5.48644 L 3.48315,-5.65694
 L 3.49578,-5.82826 L 3.5,-6 L 3.49578,-6.17174 L 3.48315,-6.34306 L 3.46212,-6.51356 L 3.43275,-6.68282
 L 3.39511,-6.85043 L 3.34929,-7.016 L 3.2954,-7.17911 L 3.23358,-7.33939 L 3.16396,-7.49644 L 3.08672,-7.64989
 L 3.00205,-7.79936 L 2.91014,-7.9445 L 2.81123,-8.08495 L 2.70554,-8.22038 L 2.59333,-8.35046 L 2.47487,-8.47487
 L 2.35046,-8.59333 L 2.22038,-8.70554 L 2.08495,-8.81123 L 1.9445,-8.91014 L 1.79936,-9.00205 L 1.64989,-9.08672
 L 1.49644,-9.16396 L 1.33939,-9.23358 L 1.17911,-9.2954 L 1.016,-9.34929 L 0.85043,-9.39511 L 0.682816,-9.43275
 L 0.513556,-9.46212 L 0.34306,-9.48315 L 0.171737,-9.49578 L 0,-9.5 L -0.171737,-9.49578 L -0.34306,-9.48315
 L -0.513556,-9.46212 L -0.682816,-9.43275 L -0.85043,-9.39511 L -1.016,-9.34929 L -1.17911,-9.2954 L -1.33939,-9.23358
 L -1.49644,-9.16396 L -1.64989,-9.08672 L -1.79936,-9.00205 L -1.9445,-8.91014 L -2.08495,-8.81123 L -2.22038,-8.70554
 L -2.35046,-8.59333 L -2.47487,-8.47487 L -2.59333,-8.35046 L -2.70554,-8.22038 L -2.81123,-8.08495 L -2.91014,-7.9445
 L -3.00205,-7.79936 L -3.08672,-7.64989 L -3.16396,-7.49644 L -3.23358,-7.33939 L -3.2954,-7.17911 L -3.34929,-7.016
 L -3.39511,-6.85043 L -3.43275,-6.68282 L -3.46212,-6.51356 L -3.48315,-6.34306 L -3.49578,-6.17174 L -3.5,-6
 L -3.49578,-5.82826 L -3.48315,-5.65694 L -3.46212,-5.48644 L -3.43275,-5.31718 L -3.39511,-5.14957 L -3.34929,-4.984
 L -3.2954,-4.82088 L -3.23358,-4.66061 L -3.16396,-4.50356 L -3.08672,-4.35011 L -3.00205,-4.20064 L -2.91014,-4.0555
 L -2.81123,-3.91505 L -2.70554,-3.77962 L -2.59333,-3.64954 L -2.47487,-3.52513 L -2.35046,-3.40667 L -2.22038,-3.29446
 L -2.08495,-3.18877 L -1.9445,-3.08986 L -1.88885,-3.05462 L -1.5,5.5 L -2.5,5.5 L -2.5,6.5
 L -4,6.5 L -4,9.5 L 4,9.5 z
M -6.97547,2.9994 L -6.95099,2.99759 L -6.92663,2.99459 L -6.90246,2.99039 L -6.87851,2.98501 L -6.85486,2.97847
 L -6.83156,2.97077 L -6.80866,2.96194 L -6.78622,2.95199 L -6.7643,2.94096 L -6.74295,2.92886 L -6.72222,2.91573
 L -6.70215,2.9016 L -6.6828,2.88651 L -6.66422,2.87047 L -6.64645,2.85355 L -6.62953,2.83578 L -6.61349,2.8172
 L -6.5984,2.79785 L -6.58427,2.77778 L -6.57114,2.75705 L -6.55904,2.7357 L -6.54801,2.71378 L -6.53806,2.69134
 L -6.52923,2.66844 L -6.52153,2.64514 L -6.51499,2.62149 L -6.50961,2.59754 L -6.50541,2.57337 L -6.50241,2.54901
 L -6.5006,2.52453 L -6.5,2.5 L -6.5,1.69126 L -4.07337,1.99459 L -4.04901,1.99759 L -4.02453,1.9994
 L -4,2 L -3.97547,1.9994 L -3.95099,1.99759 L -3.92663,1.99459 L -3.90246,1.99039 L -3.87851,1.98501
 L -3.85486,1.97847 L -3.83156,1.97077 L -3.80866,1.96194 L -3.78622,1.95199 L -3.7643,1.94096 L -3.74295,1.92886
 L -3.72222,1.91573 L -3.70215,1.9016 L -3.6828,1.88651 L -3.66422,1.87047 L -3.64645,1.85355 L -3.62953,1.83578
 L -3.61349,1.8172 L -3.5984,1.79785 L -3.58427,1.77778 L -3.57114,1.75705 L -3.55904,1.7357 L -3.54801,1.71378
 L -3.53806,1.69134 L -3.52923,1.66844 L -3.52153,1.64514 L -3.51499,1.62149 L -3.50961,1.59754 L -3.50541,1.57337
 L -3.50241,1.54901 L -3.5006,1.52453 L -3.5,1.5 L -3.5,-1.5 L -3.5006,-1.52453 L -3.50241,-1.54901
 L -3.50541,-1.57337 L -3.50961,-1.59754 L -3.51499,-1.62149 L -3.52153,-1.64514 L -3.52923,-1.66844 L -3.53806,-1.69134
 L -3.54801,-1.71378 L -3.55904,-1.7357 L -3.57114,-1.75705 L -3.58427,-1.77778 L -3.5984,-1.79785 L -3.61349,-1.8172
 L -3.62953,-1.83578 L -3.64645,-1.85355 L -3.66422,-1.87047 L -3.6828,-1.88651 L -3.70215,-1.9016 L -3.72222,-1.91573
 L -3.74295,-1.92886 L -3.7643,-1.94096 L -3.78622,-1.95199 L -3.80866,-1.96194 L -3.83156,-1.97077 L -3.85486,-1.97847
 L -3.87851,-1.98501 L -3.90246,-1.99039 L -3.92663,-1.99459 L -3.95099,-1.99759 L -3.97547,-1.9994 L -4,-2
 L -4.02453,-1.9994 L -4.04901,-1.99759 L -4.07337,-1.99459 L -6.5,-1.69126 L -6.5,-2.5 L -6.5006,-2.52453
 L -6.50241,-2.54901 L -6.50541,-2.57337 L -6.50961,-2.59754 L -6.51499,-2.62149 L -6.52153,-2.64514 L -6.52923,-2.66844
 L -6.53806,-2.69134 L -6.54801,-2.71378 L -6.55904,-2.7357 L -6.57114,-2.75705 L -6.58427,-2.77778 L -6.5984,-2.79785
 L -6.61349,-2.8172 L -6.62953,-2.83578 L -6.64645,-2.85355 L -6.66422,-2.87047 L -6.6828,-2.88651 L -6.70215,-2.9016
 L -6.72222,-2.91573 L -6.74295,-2.92886 L -6.7643,-2.94096 L -6.78622,-2.95199 L -6.80866,-2.96194 L -6.83156,-2.97077
 L -6.85486,-2.97847 L -6.87851,-2.98501 L -6.90246,-2.99039 L -6.92663,-2.99459 L -6.95099,-2.99759 L -6.97547,-2.9994
 L -7,-3 L -7.02453,-2.9994 L -7.04901,-2.99759 L -7.07337,-2.99459 L -7.09755,-2.99039 L -7.12149,-2.98501
 L -7.14514,-2.97847 L -7.16845,-2.97077 L -7.19134,-2.96194 L -7.21378,-2.95199 L -7.2357,-2.94096 L -7.25705,-2.92886
 L -11.2571,-0.428864 L -11.2778,-0.415734 L -11.2978,-0.401604 L -11.3172,-0.386505 L -11.3358,-0.370475 L -11.3536,-0.353553
 L -11.3705,-0.335779 L -11.3865,-0.317196 L -11.4016,-0.297849 L -11.4157,-0.277784 L -11.4289,-0.257051 L -11.441,-0.235698
 L -11.452,-0.213778 L -11.4619,-0.191341 L -11.4708,-0.168445 L -11.4785,-0.145142 L -11.485,-0.12149 L -11.4904,-0.0975447
 L -11.4946,-0.0733652 L -11.4976,-0.0490084 L -11.4994,-0.0245333 L -11.5,-0 L -11.4994,0.0245333 L -11.4976,0.0490084
 L -11.4946,0.0733652 L -11.4904,0.0975447 L -11.485,0.12149 L -11.4785,0.145142 L -11.4708,0.168445 L -11.4619,0.191341
 L -11.452,0.213778 L -11.441,0.235698 L -11.4289,0.257051 L -11.4157,0.277784 L -11.4016,0.297849 L -11.3865,0.317196
 L -11.3705,0.335779 L -11.3536,0.353553 L -11.3358,0.370475 L -11.3172,0.386505 L -11.2978,0.401604 L -11.2778,0.415734
 L -11.2571,0.428864 L -7.25705,2.92886 L -7.2357,2.94096 L -7.21378,2.95199 L -7.19134,2.96194 L -7.16845,2.97077
 L -7.14514,2.97847 L -7.12149,2.98501 L -7.09755,2.99039 L -7.07337,2.99459 L -7.04901,2.99759 L -7.02453,2.9994
 L -7,3 z
" stroke="black" fill="lightgray" stroke-width="0.5"/>
</svg>
