<?xml version="1.0" standalone="no"?>
<!DOCTYPE svg PUBLIC "-//W3C//DTD SVG 1.1//EN" "http://www.w3.org/Graphics/SVG/1.1/DTD/svg11.dtd">
<svg width="15mm" height="20mm" viewBox="-11 -10 15 20" xmlns="http://www.w3.org/2000/svg" version="1.1">
<title>OpenSCAD Model</title>
<path d="
M 4,6.5 L 2.5,6.5 L 2.5,5.5 L 1.5,5.5 L 1.88885,-3.05462 L 1.9445,-3.08986
 L 2.08495,-3.18877 L 2.22038,-3.29446 L 2.35046,-3.40667 L 2.47487,-3.52513 L 2.59333,-3.64954 L 2.70554,-3.77962
 L 2.81123,-3.91505 L 2.91014,-4.0555 L 3.00205,-4.20064 L 3.08672,-4.35011 L 3.16396,-4.50356 L 3.23358,-4.66061
 L 3.2954,-4.82088 L 3.34929,-4.984 L 3.39511,-5.14957 L 3.43275,-5.31718 L 3.46212,-5.48644 L 3.48315,-5.65694
 L 3.49578,-5.82826 L 3.5,-6 L 3.49578,-6.17174 L 3.48315,-6.34306 L 3.46212,-6.51356 L 3.43275,-6.68282
 L 3.39511,-6.85043 L 3.34929,-7.016 L 3.2954,-7.17911 L 3.23358,-7.33939 L 3.16396,-7.49644 L 3.08672,-7.64989
 L 3.00205,-7.79936 L 2.91014,-7.9445 L 2.81123,-8.08495 L 2.70554,-8.22038 L 2.59333,-8.35046 L 2.47487,-8.47487
 L 2.35046,-8.59333 L 2.22038,-8.70554 L 2.08495,-8.81123 L 1.9445,-8.91014 L 1.79936,-9.00205 L 1.64989,-9.08672
 L 1.49644,-9.16396 L 1.33939,-9.23358 L 1.17911,-9.2954 L 1.016,-9.34929 L 0.85043,-9.39511 L 0.682816,-9.43275
 L 0.513556,-9.46212 L 0.34306,-9.48315 L 0.171737,-9.49578 L 0,-9.5 L -0.171737,-9.49578 L -0.34306,-9.48315
 L -0.513556,-9.46212 L -0.682816,-9.43275 L -0.85043,-9.39511 L -1.016,-9.34929 L -1.17911,-9.2954 L -1.33939,-9.23358
 L -1.49644,-9.16396 L -1.64989,-9.08672 L -1.79936,-9.00205 L -1.9445,-8.91014 L -2.08495,-8.81123 L -2.22038,-8.70554
 L -2.35046,-8.59333 L -2.47487,-8.47487 L -2.59333,-8.35046 L -2.70554,-8.22038 L -2.81123,-8.08495 L -2.91014,-7.9445
 L -3.00205,-7.79936 L -3.08672,-7.64989 L -3.16396,-7.49644 L -3.23358,-7.33939 L -3.2954,-7.17911 L -3.34929,-7.016
 L -3.39511,-6.85043 L -3.43275,-6.68282 L -3.46212,-6.51356 L -3.48315,-6.34306 L -3.49578,-6.17174 L -3.5,-6
 L -3.49578,-5.82826 L -3.48315,-5.65694 L -3.46212,-5.48644 L -3.43275,-5.31718 L -3.39511,-5.14957 L -3.34929,-4.984
 L -3.2954,-4.82088 L -3.23358,-4.66061 L -3.16396,-4.50356 L -3.08672,-4.35011 L -3.00205,-4.20064 L -2.91014,-4.0555
 L -2.81123,-3.91505 L -2.70554,-3.77962 L -2.59333,-3.64954 L -2.47487,-3.52513 L -2.35046,-3.40667 L -2.22038,-3.29446
 L -2.08495,-3.18877 L -1.9445,-3.08986 L -1.88885,-3.05462 L -1.5,5.5 L -2.5,5.5 L -2.5,6.5
 L -4,6.5 L -4,9.5 L 4,9.5 z
M -6.47547,4.4994 L -6.45099,4.49759 L -6.42663,4.49459 L -6.40246,4.49039 L -6.37851,4.48501 L -6.35486,4.47847
 L -6.33156,4.47077 L -6.30866,4.46194 L -6.28622,4.45199 L -6.2643,4.44096 L -6.24295,4.42886 L -6.22222,4.41573
 L -6.20215,4.4016 L -6.1828,4.38651 L -6.16422,4.37047 L -6.14645,4.35355 L -6.12953,4.33578 L -6.11349,4.3172
 L -6.0984,4.29785 L -6.08427,4.27778 L -6.07114,4.25705 L -6.05904,4.2357 L -6.04801,4.21378 L -6.03806,4.19134
 L -6.02923,4.16844 L -6.02153,4.14514 L -6.01499,4.12149 L -6.00961,4.09754 L -6.00541,4.07337 L -6.00241,4.04901
 L -6.0006,4.02453 L -6,4 L -6.0006,3.97547 L -6.00241,3.95099 L -6.00541,3.92663 L -6.30874,1.5
 L -5.5,1.5 L -5.47547,1.4994 L -5.45099,1.49759 L -5.42663,1.49459 L -5.40246,1.49039 L -5.37851,1.48501
 L -5.35486,1.47847 L -5.33156,1.47077 L -5.30866,1.46194 L -5.28622,1.45199 L -5.2643,1.44096 L -5.24295,1.42886
 L -5.22222,1.41573 L -5.20215,1.4016 L -5.1828,1.38651 L -5.16422,1.37047 L -5.14645,1.35355 L -5.12953,1.33578
 L -5.11349,1.3172 L -5.0984,1.29785 L -5.08427,1.27778 L -5.07114,1.25705 L -5.05904,1.2357 L -5.04801,1.21378
 L -5.03806,1.19134 L -5.02923,1.16844 L -5.02153,1.14514 L -5.01499,1.12149 L -5.00961,1.09754 L -5.00541,1.07337
 L -5.00241,1.04901 L -5.0006,1.02453 L -5,1 L -5.0006,0.975466 L -5.00241,0.950991 L -5.00541,0.926634
 L -5.00961,0.902454 L -5.01499,0.87851 L -5.02153,0.854857 L -5.02923,0.831554 L -5.03806,0.808658 L -5.04801,0.786222
 L -5.05904,0.764301 L -5.07114,0.742949 L -7.57114,-3.25705 L -7.58427,-3.27778 L -7.5984,-3.29785 L -7.61349,-3.3172
 L -7.62953,-3.33578 L -7.64645,-3.35355 L -7.66422,-3.37047 L -7.6828,-3.38651 L -7.70215,-3.4016 L -7.72222,-3.41573
 L -7.74295,-3.42886 L -7.7643,-3.44096 L -7.78622,-3.45199 L -7.80866,-3.46194 L -7.83156,-3.47077 L -7.85486,-3.47847
 L -7.87851,-3.48501 L -7.90246,-3.49039 L -7.92663,-3.49459 L -7.95099,-3.49759 L -7.97547,-3.4994 L -8,-3.5
 L -8.02453,-3.4994 L -8.04901,-3.49759 L -8.07337,-3.49459 L -8.09754,-3.49039 L -8.12149,-3.48501 L -8.14514,-3.47847
 L -8.16844,-3.47077 L -8.19134,-3.46194 L -8.21378,-3.45199 L -8.2357,-3.44096 L -8.25705,-3.42886 L -8.27778,-3.41573
 L -8.29785,-3.4016 L -8.3172,-3.38651 L -8.33578,-3.37047 L -8.35355,-3.35355 L -8.37047,-3.33578 L -8.38651,-3.3172
 L -8.4016,-3.29785 L -8.41573,-3.27778 L -8.42886,-3.25705 L -10.9289,0.742949 L -10.941,0.764301 L -10.952,0.786222
 L -10.9619,0.808658 L -10.9708,0.831554 L -10.9785,0.854857 L -10.985,0.87851 L -10.9904,0.902454 L -10.9946,0.926634
 L -10.9976,0.950991 L -10.9994,0.975466 L -11,1 L -10.9994,1.02453 L -10.9976,1.04901 L -10.9946,1.07337
 L -10.9904,1.09754 L -10.985,1.12149 L -10.9785,1.14514 L -10.9708,1.16844 L -10.9619,1.19134 L -10.952,1.21378
 L -10.941,1.2357 L -10.9289,1.25705 L -10.9157,1.27778 L -10.9016,1.29785 L -10.8865,1.3172 L -10.8705,1.33578
 L -10.8536,1.35355 L -10.8358,1.37047 L -10.8172,1.38651 L -10.7978,1.4016 L -10.7778,1.41573 L -10.7571,1.42886
 L -10.7357,1.44096 L -10.7138,1.45199 L -10.6913,1.46194 L -10.6684,1.47077 L -10.6451,1.47847 L -10.6215,1.48501
 L -10.5975,1.49039 L -10.5734,1.49459 L -10.549,1.49759 L -10.5245,1.4994 L -10.5,1.5 L -9.69126,1.5
 L -9.99459,3.92663 L -9.99759,3.95099 L -9.9994,3.97547 L -10,4 L -9.9994,4.02453 L -9.99759,4.04901
 L -9.99459,4.07337 L -9.99039,4.09754 L -9.98501,4.12149 L -9.97847,4.14514 L -9.97077,4.16844 L -9.96194,4.19134
 L -9.95199,4.21378 L -9.94096,4.2357 L -9.92886,4.25705 L -9.91573,4.27778 L -9.9016,4.29785 L -9.88651,4.3172
 L -9.87047,4.33578 L -9.85355,4.35355 L -9.83578,4.37047 L -9.8172,4.38651 L -9.79785,4.4016 L -9.77778,4.41573
 L -9.75705,4.42886 L -9.7357,4.44096 L -9.71378,4.45199 L -9.69134,4.46194 L -9.66844,4.47077 L -9.64514,4.47847
 L -9.62149,4.48501 L -9.59754,4.49039 L -9.57337,4.49459 L -9.54901,4.49759 L -9.52453,4.4994 L -9.5,4.5
 L -6.5,4.5 z
" stroke="black" fill="lightgray" stroke-width="0.5"/>
</svg>
