<?xml version="1.0" standalone="no"?>
<!DOCTYPE svg PUBLIC "-//W3C//DTD SVG 1.1//EN" "http://www.w3.org/Graphics/SVG/1.1/DTD/svg11.dtd">
<svg width="17mm" height="20mm" viewBox="-13 -10 17 20" xmlns="http://www.w3.org/2000/svg" version="1.1">
<title>OpenSCAD Model</title>
<path d="
M 4,6.5 L 2.5,6.5 L 2.5,5.5 L 1.5,5.5 L 1.88885,-3.05462 L 1.9445,-3.08986
 L 2.08495,-3.18877 L 2.22038,-3.29446 L 2.35046,-3.40667 L 2.47487,-3.52513 L 2.59333,-3.64954 L 2.70554,-3.77962
 L 2.81123,-3.91505 L 2.91014,-4.0555 L 3.00205,-4.20064 L 3.08672,-4.35011 L 3.16396,-4.50356 L 3.23358,-4.66061
 L 3.2954,-4.82088 L 3.34929,-4.984 L 3.39511,-5.14957 L 3.43275,-5.31718 L 3.46212,-5.48644 L 3.48315,-5.65694
 L 3.49578,-5.82826 L 3.5,-6 L 3.49578,-6.17174 L 3.48315,-6.34306 L 3.46212,-6.51356 L 3.43275,-6.68282
 L 3.39511,-6.85043 L 3.34929,-7.016 L 3.2954,-7.17911 L 3.23358,-7.33939 L 3.16396,-7.49644 L 3.08672,-7.64989
 L 3.00205,-7.79936 L 2.91014,-7.9445 L 2.81123,-8.08495 L 2.70554,-8.22038 L 2.59333,-8.35046 L 2.47487,-8.47487
 L 2.35046,-8.59333 L 2.22038,-8.70554 L 2.08495,-8.81123 L 1.9445,-8.91014 L 1.79936,-9.00205 L 1.64989,-9.08672
 L 1.49644,-9.16396 L 1.33939,-9.23358 L 1.17911,-9.2954 L 1.016,-9.34929 L 0.85043,-9.39511 L 0.682816,-9.43275
 L 0.513556,-9.46212 L 0.34306,-9.48315 L 0.171737,-9.49578 L 0,-9.5 L -0.171737,-9.49578 L -0.34306,-9.48315
 L -0.513556,-9.46212 L -0.682816,-9.43275 L -0.85043,-9.39511 L -1.016,-9.34929 L -1.17911,-9.2954 L -1.33939,-9.23358
 L -1.49644,-9.16396 L -1.64989,-9.08672 L -1.79936,-9.00205 L -1.9445,-8.91014 L -2.08495,-8.81123 L -2.22038,-8.70554
 L -2.35046,-8.59333 L -2.47487,-8.47487 L -2.59333,-8.35046 L -2.70554,-8.22038 L -2.81123,-8.08495 L -2.91014,-7.9445
 L -3.00205,-7.79936 L -3.08672,-7.64989 L -3.16396,-7.49644 L -3.23358,-7.33939 L -3.2954,-7.17911 L -3.34929,-7.016
 L -3.39511,-6.85043 L -3.43275,-6.68282 L -3.46212,-6.51356 L -3.48315,-6.34306 L -3.49578,-6.17174 L -3.5,-6
 L -3.49578,-5.82826 L -3.48315,-5.65694 L -3.46212,-5.48644 L -3.43275,-5.31718 L -3.39511,-5.14957 L -3.34929,-4.984
 L -3.2954,-4.82088 L -3.23358,-4.66061 L -3.16396,-4.50356 L -3.08672,-4.35011 L -3.00205,-4.20064 L -2.91014,-4.0555
 L -2.81123,-3.91505 L -2.70554,-3.77962 L -2.59333,-3.64954 L -2.47487,-3.52513 L -2.35046,-3.40667 L -2.22038,-3.29446
 L -2.08495,-3.18877 L -1.9445,-3.08986 L -1.88885,-3.05462 L -1.5,5.5 L -2.5,5.5 L -2.5,6.5
 L -4,6.5 L -4,9.5 L 4,9.5 z
M -8.97547,2.9994 L -8.95099,2.99759 L -8.92663,2.99459 L -8.90245,2.99039 L -8.87851,2.98501 L -8.85486,2.97847
 L -8.83155,2.97077 L -8.80866,2.96194 L -8.78622,2.95199 L -8.7643,2.94096 L -8.74295,2.92886 L -4.74295,0.428864
 L -4.72222,0.415734 L -4.70215,0.401604 L -4.6828,0.386505 L -4.66422,0.370475 L -4.64645,0.353553 L -4.62953,0.335779
 L -4.61349,0.317196 L -4.5984,0.297849 L -4.58427,0.277784 L -4.57114,0.257051 L -4.55904,0.235698 L -4.54801,0.213778
 L -4.53806,0.191341 L -4.52923,0.168445 L -4.52153,0.145142 L -4.51499,0.12149 L -4.50961,0.0975447 L -4.50541,0.0733652
 L -4.50241,0.0490084 L -4.5006,0.0245333 L -4.5,-0 L -4.5006,-0.0245333 L -4.50241,-0.0490084 L -4.50541,-0.0733652
 L -4.50961,-0.0975447 L -4.51499,-0.12149 L -4.52153,-0.145142 L -4.52923,-0.168445 L -4.53806,-0.191341 L -4.54801,-0.213778
 L -4.55904,-0.235698 L -4.57114,-0.257051 L -4.58427,-0.277784 L -4.5984,-0.297849 L -4.61349,-0.317196 L -4.62953,-0.335779
 L -4.64645,-0.353553 L -4.66422,-0.370475 L -4.6828,-0.386505 L -4.70215,-0.401604 L -4.72222,-0.415734 L -4.74295,-0.428864
 L -8.74295,-2.92886 L -8.7643,-2.94096 L -8.78622,-2.95199 L -8.80866,-2.96194 L -8.83155,-2.97077 L -8.85486,-2.97847
 L -8.87851,-2.98501 L -8.90245,-2.99039 L -8.92663,-2.99459 L -8.95099,-2.99759 L -8.97547,-2.9994 L -9,-3
 L -9.02453,-2.9994 L -9.04901,-2.99759 L -9.07337,-2.99459 L -9.09754,-2.99039 L -9.12149,-2.98501 L -9.14514,-2.97847
 L -9.16844,-2.97077 L -9.19134,-2.96194 L -9.21378,-2.95199 L -9.2357,-2.94096 L -9.25705,-2.92886 L -9.27778,-2.91573
 L -9.29785,-2.9016 L -9.3172,-2.88651 L -9.33578,-2.87047 L -9.35355,-2.85355 L -9.37047,-2.83578 L -9.38651,-2.8172
 L -9.4016,-2.79785 L -9.41573,-2.77778 L -9.42886,-2.75705 L -9.44096,-2.7357 L -9.45199,-2.71378 L -9.46194,-2.69134
 L -9.47077,-2.66844 L -9.47847,-2.64514 L -9.48501,-2.62149 L -9.49039,-2.59754 L -9.49459,-2.57337 L -9.49759,-2.54901
 L -9.4994,-2.52453 L -9.5,-2.5 L -9.5,-1.69126 L -11.9266,-1.99459 L -11.951,-1.99759 L -11.9755,-1.9994
 L -12,-2 L -12.0245,-1.9994 L -12.049,-1.99759 L -12.0734,-1.99459 L -12.0975,-1.99039 L -12.1215,-1.98501
 L -12.1451,-1.97847 L -12.1684,-1.97077 L -12.1913,-1.96194 L -12.2138,-1.95199 L -12.2357,-1.94096 L -12.2571,-1.92886
 L -12.2778,-1.91573 L -12.2978,-1.9016 L -12.3172,-1.88651 L -12.3358,-1.87047 L -12.3536,-1.85355 L -12.3705,-1.83578
 L -12.3865,-1.8172 L -12.4016,-1.79785 L -12.4157,-1.77778 L -12.4289,-1.75705 L -12.441,-1.7357 L -12.452,-1.71378
 L -12.4619,-1.69134 L -12.4708,-1.66844 L -12.4785,-1.64514 L -12.485,-1.62149 L -12.4904,-1.59754 L -12.4946,-1.57337
 L -12.4976,-1.54901 L -12.4994,-1.52453 L -12.5,-1.5 L -12.5,1.5 L -12.4994,1.52453 L -12.4976,1.54901
 L -12.4946,1.57337 L -12.4904,1.59754 L -12.485,1.62149 L -12.4785,1.64514 L -12.4708,1.66844 L -12.4619,1.69134
 L -12.452,1.71378 L -12.441,1.7357 L -12.4289,1.75705 L -12.4157,1.77778 L -12.4016,1.79785 L -12.3865,1.8172
 L -12.3705,1.83578 L -12.3536,1.85355 L -12.3358,1.87047 L -12.3172,1.88651 L -12.2978,1.9016 L -12.2778,1.91573
 L -12.2571,1.92886 L -12.2357,1.94096 L -12.2138,1.95199 L -12.1913,1.96194 L -12.1684,1.97077 L -12.1451,1.97847
 L -12.1215,1.98501 L -12.0975,1.99039 L -12.0734,1.99459 L -12.049,1.99759 L -12.0245,1.9994 L -12,2
 L -11.9755,1.9994 L -11.951,1.99759 L -11.9266,1.99459 L -9.5,1.69126 L -9.5,2.5 L -9.4994,2.52453
 L -9.49759,2.54901 L -9.49459,2.57337 L -9.49039,2.59754 L -9.48501,2.62149 L -9.47847,2.64514 L -9.47077,2.66844
 L -9.46194,2.69134 L -9.45199,2.71378 L -9.44096,2.7357 L -9.42886,2.75705 L -9.41573,2.77778 L -9.4016,2.79785
 L -9.38651,2.8172 L -9.37047,2.83578 L -9.35355,2.85355 L -9.33578,2.87047 L -9.3172,2.88651 L -9.29785,2.9016
 L -9.27778,2.91573 L -9.25705,2.92886 L -9.2357,2.94096 L -9.21378,2.95199 L -9.19134,2.96194 L -9.16844,2.97077
 L -9.14514,2.97847 L -9.12149,2.98501 L -9.09754,2.99039 L -9.07337,2.99459 L -9.04901,2.99759 L -9.02453,2.9994
 L -9,3 z
" stroke="black" fill="lightgray" stroke-width="0.5"/>
</svg>
